<?xml version="1.0" encoding="UTF-8" standalone="no"?>
<!-- Created with Inkscape (http://www.inkscape.org/) -->

<svg
   width="40"
   height="40"
   viewBox="0 0 33.866664 33.866664"
   version="1.1"
   id="svg5"
   xmlns:inkscape="http://www.inkscape.org/namespaces/inkscape"
   xmlns:sodipodi="http://sodipodi.sourceforge.net/DTD/sodipodi-0.dtd"
   xmlns="http://www.w3.org/2000/svg"
   xmlns:svg="http://www.w3.org/2000/svg">
  <sodipodi:namedview
     id="namedview7"
     pagecolor="#505050"
     bordercolor="#eeeeee"
     borderopacity="1"
     inkscape:showpageshadow="0"
     inkscape:pageopacity="0"
     inkscape:pagecheckerboard="0"
     inkscape:deskcolor="#505050"
     inkscape:document-units="mm"
     showgrid="false" />
  <defs
     id="defs2" />
  <g
     inkscape:label="Layer 1"
     inkscape:groupmode="layer"
     id="layer1">
    <path
       style="fill:#000000;stroke-width:0.268281"
       id="path1347"
       d="m 1.3762987,2.0089613 c 0.704034,0.4502733 1.5245178,0.6458559 2.3388526,0.7504136 0.1749261,0.022459 0.3508425,0.035836 0.5262637,0.053754 0.8041071,0.037651 0.3757864,0.030231 1.4563367,-0.0025 0.2154733,-0.00653 0.4316056,-0.00261 0.6463462,-0.021999 0.2072682,-0.018716 0.4124655,-0.05716 0.6177338,-0.092121 C 7.5044283,2.6040934 7.5550055,2.5819458 8.0729147,2.4538898 8.579677,2.3145377 9.1055493,2.221721 9.6319214,2.2746023 c 0.00906,8.977e-4 2.646e-4,0.025927 0.00936,0.026381 0.3350115,0.016662 0.6706236,0.016079 1.0059366,0.024118 0.185717,-0.00679 0.371511,-0.011618 0.557152,-0.020356 0.179334,-0.00844 0.358869,-0.015117 0.53771,-0.031171 0.15275,-0.01371 0.304189,-0.040024 0.456511,-0.058074 0.341745,-0.040497 0.682868,-0.079348 1.026178,-0.1008755 -0.04152,-0.00266 -0.16611,-0.00595 -0.124556,-0.00797 0.484385,-0.023495 0.97007,0.085131 1.445699,0.1616003 0.116061,0.017568 0.232614,0.031988 0.348182,0.052703 0.94987,0.1702675 -0.204992,-0.015231 0.919143,0.1967779 0.369555,0.069697 0.804715,0.1254369 1.178318,0.1547394 0.186359,0.014616 0.373381,0.018199 0.560072,0.027297 0.167246,0.00177 0.334486,0.00626 0.501738,0.00528 0.698822,-0.00405 0.166938,-0.019021 0.808449,-0.011028 0.345473,0.00431 0.689622,0.029737 1.034247,0.052686 0.136936,0.019575 0.2733,0.043985 0.410808,0.058729 0.147403,0.015805 0.295729,0.02069 0.443458,0.03287 0.495874,0.040884 0.513805,0.052718 1.017938,0.083076 0.531781,0.032023 0.528232,0.025264 1.05304,0.029412 0.156153,-0.00391 0.312306,-0.015634 0.468457,-0.011711 1.117553,0.028082 -0.0924,0.055404 1.044546,0.043516 0.315175,-0.00329 0.630415,-0.00873 0.945323,-0.022489 0.141136,-0.00617 0.281396,-0.026042 0.422237,-0.037263 0.127241,-0.010138 0.254653,-0.017872 0.381979,-0.026809 0.144765,-0.00182 0.28952,-0.00476 0.434294,-0.00545 0.56396,-0.00266 0.38114,0.00953 0.947299,-0.011221 0.151407,-0.00555 0.302768,-0.012739 0.454022,-0.021689 0.135517,-0.00802 0.270547,-0.025181 0.406233,-0.029214 0.141364,-0.00421 0.282832,0.00302 0.424246,0.00453 -0.01122,-0.00362 -0.04539,-0.010076 -0.03365,-0.010851 0.259056,-0.017231 0.519136,-0.0171 0.777886,-0.038649 0.290316,-0.024178 0.56757,-0.1262113 0.844055,-0.2110159 0.03608,-0.00505 0.07186,-0.013568 0.108246,-0.015138 0.03516,-0.00152 0.07023,0.00654 0.105415,0.00592 0.100854,-0.0067 0.217554,-0.015786 0.318696,-0.017211 0.116644,-0.00163 0.233297,0.00264 0.349946,0.00386 0.06778,0.00376 0.14319,-0.021042 0.203335,0.011309 0.05038,0.027092 -0.226883,-5.983e-4 -0.170442,0.00638 0.06987,0.00866 0.140796,0.00114 0.211132,-0.00134 0.152951,-0.0054 0.305875,-0.023449 0.458047,-0.039371 0.222004,-0.046069 0.470935,0.044089 0.685488,-0.01759 0.110847,-0.031866 -0.240006,0.031769 -0.344906,-0.016937 -0.149579,-0.06945 -0.254217,-0.2135036 -0.381325,-0.3202556 -0.02808,-0.040663 -0.03582,-0.1250893 -0.08423,-0.1219886 -0.04426,0.00284 -0.03075,0.085745 -0.04132,0.1300299 -0.01905,0.07983 -0.03422,0.1606571 -0.04739,0.2417319 -0.04914,0.3025141 -0.0781,0.6088894 -0.106503,0.9139766 -0.02516,0.2742484 -0.06496,0.546735 -0.09181,0.8207868 -0.0083,0.084747 -0.01188,0.1699812 -0.02188,0.254534 -0.01072,0.090588 -0.02682,0.1804155 -0.04023,0.2706235 -0.01106,0.099564 -0.02212,0.1991265 -0.03319,0.2986901 -0.06198,0.57435 -0.151656,1.1427219 -0.163684,1.7213792 0.0011,0.2222065 0.0076,0.4452618 0.02207,0.6670362 0.0041,0.062279 0.01683,0.1239587 0.0177,0.1863716 0.0016,0.1234228 -0.01953,0.2460529 -0.02963,0.3690503 -0.04585,0.5309772 -0.05841,1.063748 -0.06572,1.5964732 -0.03142,0.5874484 0.02975,1.1731744 0.152048,1.7464054 0.05565,0.274929 0.222695,0.51523 0.276815,0.79011 0.01397,0.0709 0.01564,0.257249 0.01733,0.312995 -0.0074,0.422513 -0.004,0.01 0.0052,0.481396 0.0019,0.09111 -0.0029,0.182368 0.0013,0.273396 0.0044,0.09458 0.01924,0.18841 0.02469,0.282936 0.01116,0.194194 0.01122,0.388895 0.01712,0.583331 -7.94e-4,0.106696 0.0013,0.213465 -0.0027,0.320086 -0.02185,0.587779 -0.02967,0.183393 -0.04014,0.807186 -0.0074,0.438642 0.01582,0.87634 0.03841,1.314104 0.05621,0.643321 0.01153,0.08981 0.05093,0.698966 0.0064,0.09819 0.0217,0.195974 0.02159,0.294378 -1.3e-4,0.113951 -0.01601,0.227316 -0.0223,0.341085 -0.01881,0.340757 -0.01871,0.426477 -0.02814,0.771699 -0.07018,0.917197 -0.07393,1.836698 0.0048,2.753019 0.08169,0.474822 0.07006,0.955861 0.0487,1.435157 -0.007,0.156965 -0.0047,0.315 -0.02551,0.470659 -0.02979,0.222355 -0.08406,0.44051 -0.126087,0.660766 -0.158192,1.23865 -0.31549,2.506669 -0.145794,3.754066 0.01617,0.118757 0.04508,0.2353 0.06762,0.352953 0.05858,0.175985 0.106125,0.356281 0.145312,0.537881 0.0073,0.03389 0.01709,0.0677 0.01847,0.102382 0.0034,0.0857 -0.02249,0.169967 -0.03469,0.254808 -0.145269,0.844651 -0.198834,1.701249 -0.263234,2.555214 -0.01148,0.466614 -0.03,0.642963 0.0098,1.095122 0.0109,0.124063 0.02725,0.247981 0.05288,0.369728 0.01376,0.06541 0.0051,0.215995 0.0648,0.189379 0.08811,-0.03927 0.07821,-0.180358 0.117314,-0.270539 0.305467,-0.08869 0.610931,-0.177378 0.916395,-0.266068 -0.03427,-0.04158 -0.06276,-0.08904 -0.102825,-0.124725 -0.46954,-0.418301 -1.080556,-0.647451 -1.67689,-0.793354 -0.173638,-0.04248 -0.350827,-0.06781 -0.526243,-0.101714 -0.746212,-0.08535 -1.489699,-0.215171 -2.242222,-0.225897 -0.443976,-0.0064 -0.56424,0.01494 -0.982122,0.05398 -0.362564,0.0566 -0.225597,0.02867 -0.508781,0.09129 -0.03865,0.0085 -0.07639,0.02353 -0.115842,0.02611 -0.07759,0.0051 -0.241249,-0.08779 -0.271525,-0.100419 -0.09769,-0.04072 -0.196616,-0.07823 -0.294924,-0.117346 -0.158226,-0.05834 -0.313347,-0.126483 -0.474677,-0.175005 -0.601115,-0.180788 -1.225636,-0.258858 -1.846744,-0.320519 -0.650585,-0.06459 -0.598367,-0.05402 -1.243153,-0.08534 -0.18829,3e-6 -0.376598,-0.0027 -0.564872,5e-6 -0.163654,0.0022 -0.327161,0.01148 -0.490803,0.01455 -0.770309,0.01439 -1.541489,0.01018 -2.311789,-0.0031 -0.03278,-0.01526 -0.06246,-0.043 -0.09835,-0.04577 -0.185002,-0.01428 -0.371082,-1.85e-4 -0.556551,-0.0048 -0.817825,-0.02035 -1.634926,-0.06553 -2.45286,-0.0848 -0.210651,0.0011 -0.421324,-8.4e-5 -0.631953,0.0033 -0.367465,0.0059 -0.735058,0.0093 -1.102273,0.02435 -0.205172,0.0084 -0.409664,0.02962 -0.614363,0.04622 -0.573852,0.04653 -1.143237,0.116402 -1.714409,0.188873 -0.204243,0.0158 -0.408342,0.03372 -0.612728,0.04743 -0.630914,0.04232 -0.636273,0.0219 -1.2515325,0.09641 -0.4229227,0.05122 -0.8414602,0.134628 -1.2617984,0.203435 0.050437,0.0093 0.1943327,-8.15e-4 0.1513096,0.0277 -0.057706,0.03835 -0.1373002,0.01112 -0.2059712,0.0086 -0.1677397,-0.0062 -0.3509476,-0.04719 -0.5146207,-0.07286 -0.3706383,-0.05812 -0.2868385,-0.04419 -0.6645806,-0.07553 -0.4359823,-0.02217 -0.8726226,0.0034 -1.3086369,0.0081 -0.3040284,0.0034 -0.6081778,0.0042 -0.9122936,0.0074 -0.6968728,0.01605 -0.4933397,0.05244 -1.3343239,-0.06176 -0.5718916,-0.02016 -1.1503879,-0.0074 -1.7115728,0.120675 -0.153533,0.03503 -0.2900617,0.08284 -0.4387134,0.131446 -0.046442,0.01741 -0.093464,0.03329 -0.1393265,0.05226 -0.029644,0.01227 -0.058873,0.02579 -0.087005,0.04137 -0.012429,0.0069 -0.044923,0.01632 -0.034165,0.02573 0.013893,0.01213 0.035898,-0.0096 0.054092,-0.0083 0.1840317,0.0121 0.368536,0.07382 0.5512397,0.04811 0.065629,-0.0093 -0.1150097,-0.06761 -0.1725145,-0.101416 -0.044462,-0.01616 -0.087572,-0.037 -0.1333855,-0.04852 -0.00464,-0.0011 -0.00447,0.01109 -0.00121,0.01469 0.03092,0.03404 0.067829,0.06181 0.1002476,0.09434 0.019215,0.01929 0.027751,0.0588 0.054519,0.06097 0.020629,0.0016 0.02709,-0.03357 0.033298,-0.05387 0.017967,-0.05874 0.025586,-0.1203 0.038378,-0.180452 0.065398,-0.555297 0.1094592,-1.114762 0.1080879,-1.674663 -3.228e-4,-0.13166 -0.00875,-0.26317 -0.013126,-0.394754 -0.00925,-0.365453 -0.091162,-0.723407 -0.1044364,-1.088373 -0.00353,-0.09715 4.683e-4,-0.221634 0.00257,-0.319454 0.059646,-0.402803 0.1782037,-0.793346 0.2315325,-1.197365 0.014335,-0.108603 0.021011,-0.21813 0.031517,-0.327194 0.018325,-0.26646 0.011955,-0.5328 -0.022027,-0.79747 -0.013118,-0.102167 -0.036647,-0.199319 -0.043234,-0.302112 0.00146,-0.03 0.00117,-0.06015 0.00438,-0.09 0.012624,-0.11723 0.036325,-0.204996 0.051252,-0.325466 0.030217,-0.243867 0.030519,-0.488348 0.030403,-0.73363 -0.025454,-0.366691 0.012171,-0.721615 0.037667,-1.086155 0.057296,-0.477356 0.1086503,-0.955163 0.1583238,-1.433457 0.036868,-0.348836 0.118932,-0.689075 0.206511,-1.027429 0.036498,-0.141007 0.081535,-0.279767 0.1129116,-0.422071 0.035893,-0.162789 0.059143,-0.328253 0.088715,-0.492379 0.1911149,-1.028854 0.114582,-2.078882 0.0098,-3.112681 -0.013123,-0.118843 -0.029756,-0.237332 -0.039368,-0.35653 -0.010861,-0.134688 -0.024175,-0.53864 -0.029087,-0.675916 -0.00185,-0.05156 -0.020442,-0.561147 -0.019976,-0.621152 8.467e-4,-0.109069 0.00908,-0.217945 0.013613,-0.326917 0.064282,-0.76184 0.1613096,-1.521187 0.2063059,-2.284797 0.010885,-0.184716 0.013996,-0.369829 0.020995,-0.554743 C 2.9744507,11.088273 2.9663877,10.63463 2.9354357,10.183126 2.9161682,9.9021177 2.8769573,9.6253461 2.8656225,9.3437278 2.854772,8.996609 2.907437,8.6558037 2.9453288,8.3129608 2.9731359,8.0613638 2.9806078,7.8833888 2.9958745,7.6299179 3.0282016,7.2733915 2.9723663,6.9202773 2.9457907,6.5662289 2.9368478,6.447108 2.934329,6.3154922 2.9308312,6.196019 2.9266772,5.8149766 2.929376,5.4337985 2.9227164,5.0525657 2.8933027,4.6132125 2.9572842,4.1782463 2.9967109,3.7420139 3.0467634,3.2455208 3.0879945,2.7459859 3.0537124,2.2470954 3.0349983,2.0719874 3.0044853,1.8984085 2.9741899,1.725072 2.9637463,1.6250645 1.5881442,1.7769166 1.5985878,1.8769242 v 0 c 0.00849,0.1070264 0.015932,0.206349 -0.018043,0.3110539 -0.098298,0.4977202 -0.1880992,1.0004518 -0.2036872,1.5091729 0.00228,0.1106273 4.366e-4,0.2214249 0.00683,0.3318816 0.022876,0.3953474 0.03025,0.1436956 0.046538,0.4876244 0.00463,0.097736 -0.00248,0.2489814 -0.00578,0.346738 -0.00206,0.060886 -0.00411,0.1217725 -0.00616,0.1826585 -0.010515,0.3979711 -0.00552,0.7949782 0.020598,1.192233 0.00359,0.1036912 0.010445,0.2333578 0.00492,0.3375519 -0.017324,0.3266363 -0.1017873,0.6476206 -0.098322,0.976376 -0.00835,0.1825866 -0.024646,0.4993581 -0.025676,0.6819959 -0.00205,0.3635985 0.025299,0.7281608 -0.010363,1.0911996 -0.04213,0.7171381 -0.1299503,1.4304361 -0.1847823,2.1465931 -0.00845,0.18472 -0.020719,0.369297 -0.025361,0.554158 -0.019586,0.779941 0.023925,1.560733 0.00792,2.340839 0.00743,0.337311 -0.00531,0.667406 -0.00228,1.003971 0.00213,0.23616 0.012093,0.472144 0.020486,0.708113 0.00151,0.116729 -0.00232,0.233467 -0.00348,0.3502 -0.00224,0.164152 -0.00866,0.665187 -0.012592,0.817559 -0.017525,0.678622 -0.07102,1.356177 -0.062625,2.035436 -0.00881,0.150505 -0.019405,0.300911 -0.026433,0.451516 -0.00621,0.133066 -0.00426,0.266526 -0.013277,0.399422 -0.025355,0.373707 -0.1070508,0.739771 -0.15488175,1.110295 -0.0388797,0.267717 -0.0799959,0.535315 -0.0977202,0.805671 -0.0208764,0.318437 -0.008629,0.235332 -0.007989,0.533579 1.6102e-4,0.07504 -0.001926,0.15007 -0.002891,0.225105 0.002711,0.162338 0.006617,0.324872 -0.0143595,0.486367 -0.0279333,0.215051 -0.0836435,0.42681 -0.0807776,0.645796 0.001646,0.240065 0.003086,0.479836 0.0322911,0.718508 0.004663,0.0381 0.0396395,0.226012 0.0435193,0.286641 0.001754,0.02739 -0.001582,0.05488 -0.002373,0.08232 -0.0467717,0.335552 -0.12213958,0.667469 -0.14793344,1.006553 -0.0586044,0.517139 -0.0820453,1.035897 -0.12487174,1.554278 -0.079378,0.52383 -0.1345888,1.052335 -0.10872973,1.583496 0.005122,0.123564 0.0102439,0.247128 0.015366,0.370693 0.009094,0.119576 0.0214199,0.23894 0.0272824,0.358729 0.005708,0.116633 0.007319,0.50881 0.00387,0.623308 -0.002974,0.09873 -0.0138644,0.19711 -0.0169355,0.295844 -0.003112,0.100048 -0.001072,0.200192 -0.001606,0.300285 0.0237297,0.532157 0.0492506,0.935518 0.46542936,1.316805 0.13386506,0.122643 0.1686538,0.117461 0.3031049,0.143538 0.2297169,-0.173135 -0.00326,-0.01284 0.727445,0.08758 0.03112,0.0043 0.062222,-0.0097 0.093598,-0.01086 0.1050773,-0.0039 0.2123518,0.01768 0.317319,-0.0044 0.3930489,-0.02301 0.784746,-0.01218 1.178001,-0.0016 0.025527,8.16e-4 -0.050975,-0.0033 -0.076462,-0.0048 0.1125963,-0.01208 0.2247003,-0.03091 0.337789,-0.03625 0.3213066,-0.01517 0.2506932,0.01929 0.5638926,0.03544 0.4382405,0.02261 0.8781365,0.03082 1.3167265,0.01325 0.2936258,-0.01374 0.5887447,-0.01844 0.8817057,-0.04416 0.04858,-0.0043 -0.1944375,-5.44e-4 -0.1461397,0.0064 0.1834022,0.02606 0.3718049,-0.0065 0.5549709,0.02337 0.3005915,0.01235 0.6041197,0.0099 0.9039479,0.03641 0.093117,0.0082 0.1857849,0.02138 0.2783362,0.03475 0.097539,0.01409 0.1936157,0.04008 0.2918394,0.0476 0.2356763,0.01806 0.4722852,0.01939 0.7084279,0.02909 0.6845353,0.05046 1.3671577,0.07365 2.0518437,0.0011 0.219685,-0.02331 0.437613,-0.06175 0.656036,-0.09534 0.19559,-0.03007 0.390639,-0.06375 0.585959,-0.09562 0.973775,-0.09633 1.953102,-0.163003 2.931821,-0.125207 0.820695,-2.73e-4 1.641462,-0.0073 2.462102,0.0068 0.191047,0.0033 0.381947,0.01886 0.573004,0.01621 0.348381,-0.0048 0.696378,-0.02562 1.044567,-0.03846 0.497625,-0.02277 0.443515,-0.0241 0.928096,-0.03177 0.0024,-3.8e-5 -0.0089,0.0027 -0.0065,0.0028 0.775374,0.03205 0.100584,-0.01 0.900041,0.05526 0.169126,0.01382 0.338379,0.02592 0.507568,0.03887 0.505743,0.04183 0.658379,0.05291 1.171617,0.10192 0.753355,0.07194 1.509832,0.173278 2.267896,0.122958 0.05132,0.0042 0.458224,0.0351 0.538598,0.05055 0.300833,0.05785 0.570328,0.237095 0.880261,0.261772 0.137739,0.02073 0.274748,0.04744 0.413215,0.06215 0.339236,0.03605 0.741125,0.04571 1.079281,0.05082 0.281564,0.0042 0.783815,-0.0037 1.074706,0.01387 0.150598,0.0091 0.300251,0.03052 0.450376,0.04578 0.721884,0.0901 1.465741,0.163281 2.13156,0.48602 0.373705,-0.05443 0.771737,-0.01646 1.121116,-0.163283 0.136356,-0.0573 0.147341,-0.262482 0.213749,-0.39767 0.248761,-0.506417 0.225102,-1.167298 0.244671,-1.716203 -0.02175,-0.52625 -0.0322,-1.052169 -0.05084,-1.578488 -0.0098,-0.277848 -0.0088,-0.491076 -0.03008,-0.765927 -0.0083,-0.107271 -0.02275,-0.213944 -0.03414,-0.320917 -0.01595,-0.07896 -0.03063,-0.158207 -0.04784,-0.236889 -0.01799,-0.08229 -0.04979,-0.16213 -0.05708,-0.246144 -0.0077,-0.08914 0.136491,-0.167312 0.107598,-0.253857 0.03461,-0.108175 0.07434,-0.214759 0.103825,-0.324526 0.256379,-0.954415 0.345136,-1.961969 0.348269,-2.949413 7.94e-4,-0.285401 -0.01892,-0.570475 -0.02837,-0.855714 -0.02742,-0.245976 -0.05801,-0.4916 -0.08225,-0.737929 -0.03001,-0.30498 -0.04812,-0.611086 -0.07529,-0.916347 -0.02408,-0.270455 -0.04625,-0.423287 -0.04734,-0.68971 -5.29e-4,-0.105953 0.007,-0.211783 0.01056,-0.317673 0.01701,-0.427156 0.03979,-0.854324 0.04334,-1.281916 0.004,-0.480414 -0.0033,-0.503955 -0.02214,-0.980963 -0.0058,-0.146619 -0.0114,-0.293248 -0.01709,-0.439873 -0.0043,-0.330419 -0.0029,-0.456361 -0.01934,-0.783926 -0.006,-0.118156 -0.0217,-0.235841 -0.02307,-0.354147 -0.0011,-0.102136 0.01191,-0.203933 0.0154,-0.306011 0.0039,-0.114539 0.0046,-0.229172 0.0069,-0.343759 0.0047,-0.12256 0.0095,-0.245121 0.01418,-0.367682 5.29e-4,-0.575434 -5.29e-4,-1.152655 -0.03963,-1.727028 -0.0093,-0.136519 -0.02569,-0.272435 -0.03736,-0.408764 -0.0098,-0.114831 -0.01805,-0.229801 -0.02706,-0.344702 -0.0154,-0.198366 -0.03866,-0.39605 -0.0528,-0.594514 -0.02572,-0.360776 -0.02619,-0.724176 -0.07369,-1.083369 -0.02846,-0.191047 -0.04698,-0.336723 -0.08817,-0.525995 -0.05492,-0.252346 -0.146214,-0.494728 -0.205012,-0.746101 -0.0276,-0.114689 -0.06897,-0.267937 -0.07993,-0.386641 -0.03162,-0.342516 0.0136,-0.7040705 -0.01614,-1.0479132 -0.0013,-0.5257868 0.01413,-1.0512933 0.01394,-1.577054 -0.01191,-0.3768968 -0.06144,-0.7556457 0.0024,-1.1305054 0.09403,-0.571476 0.181634,-1.1444819 0.198546,-1.725094 0.0056,-0.1140835 0.0164,-0.3865369 0.03142,-0.5018543 0.04863,-0.3736835 0.171725,-0.736542 0.191582,-1.1153125 0.04447,-0.4193245 0.07739,-0.8328893 0.0451,-1.254752 C 33.261392,2.1356028 33.257712,2.04569 33.239922,1.9582549 33.213942,1.8305593 33.171532,1.7069917 33.137338,1.58136 32.991007,1.4393765 32.878477,1.2475792 32.698349,1.1554097 c -0.132546,-0.067822 -0.297762,0.00144 -0.443463,-0.025588 -0.09421,-0.017476 0.191461,-0.00156 0.287174,-0.0034 0.02162,-4.161e-4 -0.04327,4.299e-4 -0.06485,-8.677e-4 C 32.41802,1.121994 32.376809,1.113493 32.317018,1.10376 31.815146,1.016186 31.304627,1.005316 30.79722,1.057844 c -0.340593,0.028529 -0.678913,0.077595 -1.016159,0.1337162 -0.152331,0.00398 -0.301956,-0.012032 -0.4538,-0.027072 -0.08998,-0.00891 -0.183052,-0.00304 -0.269634,-0.029747 -0.02907,-0.00897 0.05823,-0.017646 0.08734,-0.02647 -0.281604,-0.00373 -0.563211,-0.00746 -0.844815,-0.011189 -0.146648,0.00468 -0.293229,0.013068 -0.439946,0.014033 -0.746686,0.00491 -0.1133,-0.02902 -0.898356,0.00179 -0.540466,0.021209 -0.399108,0.025962 -0.927181,0.068456 -0.132169,0.010636 -0.264578,0.017835 -0.396867,0.026752 -0.254498,-0.00897 -0.56547,-0.016882 -0.817468,-0.0389 -0.01077,-9.412e-4 -0.01824,-0.014652 -0.02904,-0.01481 -0.171939,-0.00252 -0.343885,0.00455 -0.515827,0.00684 -0.169655,0.00841 -0.339122,0.027069 -0.508965,0.025239 -0.147606,-0.00174 -0.294436,-0.023803 -0.441706,-0.03563 -0.525974,-0.033185 -1.050808,-0.057674 -1.578015,-0.055316 -0.163946,7.318e-4 -0.327793,0.010261 -0.491741,0.010287 -1.009351,1.44e-4 0.116194,-0.028205 -0.876237,0.00381 -0.749599,-0.028641 -1.495285,-0.11312371 -2.236437,-0.23081747 -0.181128,-0.0227631 -0.36172,-0.0506218 -0.543386,-0.0682904 -0.205555,-0.0199923 -0.964929,-0.0666115 -1.171628,-0.0723311 -0.577947,-0.0159918 -0.417511,0.0226953 -0.938478,-0.0236299 -0.118945,-0.0105765 -0.237012,-0.0297987 -0.355519,-0.0446976 -0.77517,-0.0852394 -1.551199,-0.18950705 -2.332554,-0.17363464 -0.372227,-0.0107914 -0.743723,-0.0249685 -1.116058,-0.0321244 -0.157048,-0.003023 -0.31404,-0.0121188 -0.471109,-0.0107534 -0.176422,0.001532 -0.352651,0.0124036 -0.528946,0.0194484 -0.1757,0.007022 -0.351357,0.0151621 -0.527036,0.0227436 -0.2949991,0.2379384 -0.02647,0.0406344 -0.9606709,0.0609043 C 8.5765046,0.56991415 7.9591476,0.62893176 7.343913,0.71165079 6.6647332,0.80404713 6.965062,0.75971659 6.2612547,0.87022957 6.0735934,0.89969622 5.8849929,0.92350087 5.6983444,0.95912405 5.5284589,0.99154868 5.358431,1.0257088 5.1922227,1.0742658 c -0.018039,0.00527 0.07252,0.016793 0.053769,0.017011 C 5.1129863,1.0928255 4.980097,1.0826154 4.8471497,1.0782858 4.7057886,1.059867 4.5635933,1.0472737 4.4230663,1.0230292 3.9032246,0.933343 3.3936985,0.78588145 2.8694975,0.71927233 2.7092269,0.69890713 2.5475415,0.69238982 2.3862977,0.68322678 2.2774935,0.67704372 2.1684533,0.6765717 2.0595311,0.67324411 1.9676672,0.62357255 1.2844348,1.9592897 1.3762987,2.0089613 Z" />
  </g>
</svg>
