<?xml version="1.0" encoding="UTF-8" standalone="no"?>
<svg version="1.1"
   id="svg129"
   width="40"
   height="40"
   viewBox="0 0 128 128"
   sodipodi:docname="vukky.png"
   inkscape:export-filename="spookyvukky.svg"
   inkscape:export-xdpi="96"
   inkscape:export-ydpi="96"
   xmlns:inkscape="http://www.inkscape.org/namespaces/inkscape"
   xmlns:sodipodi="http://sodipodi.sourceforge.net/DTD/sodipodi-0.dtd"
   xmlns="http://www.w3.org/2000/svg"
   xmlns:svg="http://www.w3.org/2000/svg">
   <path id="path783" style="display:inline;fill:#000000;stroke:#000000" d="m 69.685547,13.861328 c -3.025376,-0.01107 -6.2362,0.153605 -9.255859,0.521484 -6.039367,0.735807 -11.314569,2.286883 -16.015626,4.707032 -4.701032,2.420124 -8.827255,5.707974 -11.236328,9.052734 -2.409048,3.34476 -3.101228,6.744581 -3.441406,11.671875 -0.340178,4.927294 -0.329194,11.382795 -0.488281,14.669922 -0.159087,3.287127 -0.488727,3.407821 -3.246094,1.267578 -2.757367,-2.140242 -7.942062,-6.542724 -11.017578,-8.830078 -3.075516,-2.287354 -4.040885,-2.459145 -4.904297,-2.259766 -0.8634115,0.199403 -1.6247795,0.770881 -2.1406249,1.423829 -0.5158453,0.652923 -0.7873584,1.386023 -0.7753906,2.292968 0.011968,0.906946 0.3077035,1.985906 3.7675785,5.0625 3.459853,3.076595 10.084621,8.152722 13.396484,10.689453 3.311863,2.536755 3.312238,2.5359 3.392578,3.228516 0.08034,0.692616 0.239798,2.076907 0.486328,7.167969 0.246531,5.091061 0.579417,13.889111 0.75,18.966797 0.170584,5.077685 0.178987,6.436355 0.677735,7.402339 0.498723,0.96611 1.487425,1.54095 3.15039,1.87891 1.662989,0.33797 4.001621,0.43948 5.753906,0.69727 1.75231,0.25779 2.9174,0.67039 3.626954,0.92187 0.70953,0.25148 0.962644,0.34144 1.257812,3.01953 0.295168,2.67834 0.633564,7.94591 0.830078,10.6875 0.196514,2.74183 0.251898,2.9578 0.533203,3.38867 0.281329,0.43088 0.787674,1.07741 1.433594,1.45313 0.64592,0.37571 1.42992,0.48203 2.232422,0.44336 0.802502,-0.0387 1.624543,-0.22286 2.216797,-0.60352 0.59223,-0.38065 0.956438,-0.95902 1.115234,-3.99804 0.158797,-3.03927 0.111572,-8.54039 0.05273,-11.33594 -0.05872,-2.79555 -0.130712,-2.88411 2.822265,-2.79883 2.952977,0.0853 8.931704,0.34559 12,0.51172 3.068296,0.16613 3.227702,0.23648 3.28125,3.17578 0.05355,2.9393 0.0018,8.74728 0.05664,11.89649 0.0548,3.14896 0.214585,3.64037 0.662109,4.1914 0.447549,0.55103 1.182707,1.1626 1.960938,1.5 0.778231,0.3374 1.599768,0.40131 2.273437,0.14063 0.673694,-0.26069 1.200378,-0.84619 1.611328,-1.29883 0.410975,-0.45265 0.706943,-0.77401 0.957032,-3.95313 0.250064,-3.17888 0.453758,-9.21788 0.521484,-12.31445 0.06773,-3.09657 -0.0011,-3.25084 2.349609,-3.2832 2.35069,-0.0324 7.121461,0.0579 9.865235,-0.19532 2.743749,-0.25321 3.460535,-0.84959 3.984375,-1.43554 0.523816,-0.58596 0.854337,-1.16032 0.951172,-5.025393 0.09683,-3.864978 -0.04051,-11.020489 -0.207032,-16.058594 -0.166494,-5.038105 -0.362161,-7.960751 -0.449218,-10.914062 -0.08706,-2.953312 -0.06426,-5.938598 0.0078,-7.507813 0.07231,-1.569191 0.194945,-1.720576 3.63086,-4.03125 3.43596,-2.310674 10.18593,-6.779133 14.17187,-9.759766 3.98618,-2.980608 5.20865,-4.47334 5.32227,-5.888671 0.11362,-1.415356 -0.88294,-2.755199 -2.10156,-3.388672 -1.21887,-0.633497 -2.65984,-0.560619 -4.39063,0.199219 -1.73079,0.759813 -3.75102,2.206882 -6.01758,3.986328 -2.26656,1.779421 -4.77915,3.891445 -6.39648,5.189453 -1.617283,1.297984 -2.339157,1.781965 -2.732422,2.064453 -0.393241,0.282488 -0.457857,0.362759 -0.478515,-1.619141 -0.02066,-1.981899 0.0018,-6.026909 -0.19336,-9.117187 -0.195189,-3.090278 -0.607929,-5.225326 -1.279297,-7.929688 -0.671343,-2.704338 -1.601,-5.978757 -2.8125,-8.777344 -1.211458,-2.798562 -2.705186,-5.122138 -4.607422,-6.910156 -1.902211,-1.788017 -4.21417,-3.040861 -8.771484,-3.707031 -2.278657,-0.333097 -5.119155,-0.518222 -8.144531,-0.529297 z m -5.335938,6.480469 c 0.482537,-6.27e-4 0.964729,1.16e-4 1.447266,0 0.504009,-9.6e-5 1.009638,1.6e-5 1.513672,0 0.452779,-1.2e-5 0.904617,3e-6 1.357422,0 h 1.279297 1.316406 1.427734 c 0.444028,-0.02116 0.883239,0.02075 1.322266,0.08203 0.541613,0.05901 1.058253,0.237373 1.570312,0.414063 0.446015,0.135334 0.892235,0.271896 1.345704,0.380859 0.386526,0.119832 0.775327,0.232245 1.158203,0.363281 0.429316,0.109713 0.809724,0.334871 1.179687,0.570313 0.44529,0.24678 0.845679,0.557453 1.246094,0.86914 0.411261,0.285817 0.797651,0.602608 1.189453,0.914063 0.391883,0.300408 0.720688,0.673479 1.060547,1.029297 0.446735,0.457797 0.865127,0.939132 1.255859,1.445312 0.436448,0.554148 0.774446,1.177764 1.136719,1.78125 0.305424,0.514609 0.586671,1.042713 0.845703,1.582032 0.231459,0.454066 0.377611,0.9355 0.515625,1.423828 0.140792,0.483806 0.299407,0.959963 0.40625,1.453125 0.139893,0.465366 0.197845,0.94803 0.296875,1.421875 0.0912,0.52027 0.191236,1.037954 0.291016,1.55664 0.07394,0.47761 0.201462,0.944673 0.289062,1.419922 0.04563,0.393666 0.144998,0.775728 0.210938,1.166016 0.07356,0.519015 0.101247,1.043114 0.123047,1.566406 -0.0042,0.447495 0.06743,0.890262 0.115234,1.333984 0.06093,0.602308 0.08196,1.207667 0.09766,1.8125 0.01423,0.659627 0.01838,1.318788 0.02148,1.978516 -0.02445,0.566978 0.03794,1.128651 0.0957,1.691406 0.03993,0.416298 0.137205,0.824387 0.197265,1.238282 0.02965,0.418914 0.115884,0.83048 0.183594,1.24414 0.07713,0.51405 0.09917,1.03205 0.119141,1.550781 0.01546,0.436918 0.02159,0.87538 0.02539,1.3125 0.0031,0.426775 0.0033,0.852539 0.0039,1.279297 5.1e-4,0.489435 -8.3e-5,0.979341 0,1.46875 6.9e-5,0.473425 -1.1e-5,0.946524 0,1.419922 -0.04214,0.560551 -0.08557,1.123699 -0.169922,1.679688 -0.0653,0.442964 -0.168982,0.877252 -0.271485,1.3125 -0.07287,0.389446 -0.197532,0.765241 -0.263672,1.15625 -0.07448,0.49096 -0.15834,0.97958 -0.21875,1.472656 -0.08444,0.607294 -0.190491,1.210165 -0.304687,1.8125 -0.121361,0.494723 -0.226965,0.994285 -0.373047,1.482422 -0.09465,0.29372 -0.141548,0.598402 -0.173828,0.904297 -0.03356,0.35548 -0.03852,0.711577 -0.04492,1.068359 -0.0064,0.467262 -0.0085,0.935046 -0.0098,1.402344 -0.0011,0.506057 1.79e-4,1.011494 0,1.517578 -1.17e-4,0.497462 -0.0019,0.994725 -0.002,1.492187 -0.02262,0.362235 0.01383,0.7166 0.0625,1.074219 0.07309,0.364081 0.05368,0.741739 0.121094,1.105469 0.08981,0.454441 0.137515,0.915499 0.171875,1.376953 0.04796,0.472862 0.01533,0.95186 0.06641,1.423828 0.07031,0.417727 0.07807,0.84542 0.154297,1.261719 0.06053,0.46208 0.200664,0.908247 0.326172,1.355469 0.128614,0.43148 0.200054,0.875425 0.246094,1.322265 0.04162,0.477544 0.04563,0.956557 0.05273,1.435547 0.0055,0.415394 0.0066,0.830669 0.0078,1.246094 9.14e-4,0.415523 0.0018,0.830545 0.002,1.246094 -0.02052,0.479052 0.02364,0.95541 0.06836,1.43164 0.05004,0.503447 0.08549,1.006415 0.109375,1.511719 0.0176,0.495493 0.03676,0.993095 0.0098,1.488281 -0.04374,0.419329 -0.09241,0.837263 -0.123047,1.257813 -0.01215,0.523497 -0.08351,1.042644 -0.140625,1.5625 -0.04642,0.526092 -0.15825,1.041933 -0.21875,1.566406 -0.02957,0.48733 -0.115444,0.968461 -0.183594,1.451172 -0.05368,0.441118 -0.0698,0.886292 -0.08594,1.330078 0.0018,0.423048 -0.02429,0.839334 -0.119141,1.251953 -0.121838,0.516526 -0.448989,0.881496 -0.894531,1.146484 -0.369185,0.18474 -0.778605,0.220081 -1.183594,0.244141 -0.439456,0.01978 -0.878543,0.02094 -1.318359,0.02344 -0.540592,0.0023 -1.082476,0.0034 -1.623047,0.0039 -0.4383,3.54e-4 -0.876179,-6.1e-5 -1.314453,0 -0.490216,5e-5 -0.980513,-9e-6 -1.470703,0 -0.50629,0.02335 -1.007794,-0.05127 -1.509766,-0.103516 -0.437708,-0.04664 -0.876674,-0.06931 -1.316406,-0.08398 -0.428144,-0.01263 -0.856883,-0.01623 -1.285156,-0.01953 -0.499564,-0.0027 -0.998503,-0.0034 -1.498047,-0.0039 -0.488912,-4.19e-4 -0.977911,-0.0019 -1.466797,-0.002 -0.493508,-5.8e-5 -0.986961,1.1e-5 -1.480469,0 -0.41621,-8e-6 -0.831837,2e-6 -1.248047,0 -0.305915,-0.0035 -0.609009,0.0655 -0.912109,0.103516 -0.447073,0.04739 -0.896597,0.06164 -1.345703,0.07422 -0.427812,0.01091 -0.855278,0.01353 -1.283204,0.01563 -0.444513,0.0018 -0.889442,0.0016 -1.333984,0.002 -0.526599,0.04932 -1.052227,0.103962 -1.580078,0.138672 -0.629307,0.03669 -1.260436,0.05036 -1.890625,0.06055 -0.566594,0.02656 -1.129367,-0.0027 -1.693359,-0.05469 -0.480109,-0.02866 -0.954896,-0.09613 -1.429688,-0.169922 -0.374383,-0.06072 -0.752579,-0.0958 -1.130859,-0.11914 -0.408793,-0.01175 -0.813543,-0.02581 -1.21875,-0.08398 -0.340727,-0.05595 -0.683043,-0.0944 -1.027344,-0.119141 -0.445264,-0.03727 -0.887059,-0.113643 -1.332031,-0.158203 -0.556301,-0.03979 -1.111369,-0.06247 -1.666016,-0.123047 -0.488374,-0.05867 -0.977654,-0.106305 -1.46875,-0.134765 -0.522842,-0.05751 -1.044121,-0.135018 -1.568359,-0.179688 -0.620871,-0.04509 -1.243045,-0.05205 -1.865235,-0.06055 -0.757891,-0.003 -1.513559,-0.07524 -2.269531,-0.123046 -0.684913,-0.0509 -1.370486,-0.118894 -2.050781,-0.214844 -0.526074,-0.09641 -1.055313,-0.167364 -1.587891,-0.214844 -0.509159,-0.04022 -1.02074,-0.04959 -1.53125,-0.05859 -0.465536,-0.0071 -0.930904,-0.0097 -1.396484,-0.01172 -0.355977,-0.0013 -0.712406,-0.0017 -1.068359,-0.002 -0.606505,0.04192 -1.109084,-0.150958 -1.556641,-0.552734 -0.311061,-0.318296 -0.46448,-0.725388 -0.605469,-1.136719 -0.127936,-0.356126 -0.190182,-0.728978 -0.232422,-1.103515 -0.05152,-0.416461 0.02388,-0.832051 0.0625,-1.246094 0.03372,-0.387575 0.04373,-0.775321 0.05273,-1.164062 0.0083,-0.39379 0.0097,-0.787805 0.01172,-1.181641 0.0016,-0.365476 0.0036,-0.732203 0.0039,-1.097656 3.01e-4,-0.42171 -4.2e-5,-0.84394 0,-1.265625 3.7e-5,-0.47287 -7e-6,-0.945125 0,-1.417969 5e-6,-0.459756 -10e-7,-0.919176 0,-1.378906 0.02184,-0.448285 -0.01949,-0.890973 -0.06641,-1.335938 -0.0524,-0.475561 -0.08706,-0.953872 -0.111328,-1.431641 -0.07328,-0.424661 -0.125359,-0.851984 -0.162109,-1.28125 -0.03807,-0.54287 -0.0545,-1.086868 -0.06641,-1.630859 0.01376,-0.467665 -0.05364,-0.928895 -0.103516,-1.392578 -0.05532,-0.492948 -0.08015,-0.9889 -0.09766,-1.484375 0.0081,-0.375067 -0.04089,-0.745746 -0.08398,-1.117188 -0.04241,-0.365683 -0.06069,-0.733846 -0.07422,-1.101562 -0.02853,-0.431305 -3.08e-4,-0.858699 0.04883,-1.287109 0.06928,-0.362547 0.149042,-0.721414 0.195312,-1.087891 0.02289,-0.386135 0.10767,-0.76442 0.16211,-1.146484 0.04841,-0.41039 0.145404,-0.81252 0.208984,-1.220704 0.08036,-0.358311 0.166517,-0.71605 0.216797,-1.080078 0.05568,-0.420855 0.130656,-0.839227 0.21289,-1.255859 0.101967,-0.432035 0.139926,-0.872679 0.166016,-1.314453 0.06599,-0.61451 0.138496,-1.227913 0.191406,-1.84375 0.0362,-0.434246 0.05383,-0.869172 0.06445,-1.304688 0.01004,-0.498281 0.01177,-0.997729 0.01367,-1.496093 0.0014,-0.428349 0.0016,-0.856806 0.002,-1.285157 2.48e-4,-0.381497 -1.7e-5,-0.763008 0,-1.144531 3.6e-5,-0.39544 0,-0.79008 0,-1.185547 4e-6,-0.391294 0,-0.782508 0,-1.173828 v -1.132812 c -0.01089,-0.37327 0.0206,-0.749088 -0.01562,-1.121094 -0.05199,-0.460915 -0.09909,-0.922291 -0.134766,-1.384766 -0.0031,-0.318603 -0.0402,-0.625614 -0.09766,-0.9375 -0.06699,-0.348107 -0.103524,-0.701348 -0.126954,-1.054687 -0.04441,-0.491464 0.0279,-0.980135 0.07227,-1.46875 0.04017,-0.449042 0.06549,-0.899153 0.08203,-1.34961 0.01213,-0.350851 0.01653,-0.703636 0.01953,-1.054687 0.0014,-0.216987 -2.28e-4,-0.109718 0.002,-0.322266 7.2e-4,-0.139019 0.01129,-0.266248 0.0293,-0.386718 -0.117918,-0.270151 -0.174977,-0.620254 -0.126953,-1.056641 0.06358,-0.577824 0.09812,-1.157957 0.128906,-1.738281 0.02623,-0.496225 0.03762,-0.993439 0.04492,-1.490235 -0.01457,-0.529665 0.02305,-1.054728 0.08594,-1.580078 0.03239,-0.450832 0.133531,-0.892178 0.212891,-1.335937 0.05155,-0.338368 0.143032,-0.667533 0.195312,-1.00586 0.04618,-0.342394 0.1381,-0.676455 0.19336,-1.017578 0.03297,-0.365035 0.115194,-0.721533 0.177734,-1.082031 0.03855,-0.337812 0.118718,-0.668834 0.173828,-1.003906 0.05184,-0.344824 0.05784,-0.694627 0.09375,-1.041016 0.03592,-0.414784 0.138064,-0.811922 0.28711,-1.199219 0.15663,-0.369235 0.40415,-0.680798 0.658203,-0.986328 0.209246,-0.231187 0.389205,-0.485308 0.578125,-0.732422 0.259553,-0.325868 0.577704,-0.596681 0.890625,-0.86914 0.330606,-0.266571 0.587338,-0.590319 0.979232,-0.745902 0.182186,-0.142539 0.484993,-0.151952 0.671158,-0.289255 0.03163,-0.03347 0.06106,-0.06921 0.09375,-0.101562 l 0.002,-0.002 c 0.05335,-0.06375 0.106101,-0.128032 0.16211,-0.189453 0.08648,-0.09484 0.173576,-0.164529 0.257812,-0.210938 h 0.002 c 0.15081,-0.141048 0.304881,-0.279082 0.464844,-0.410156 0.01804,-0.01478 0.03688,-0.02791 0.05469,-0.04102 0.07405,-0.110002 0.144707,-0.222242 0.21875,-0.332031 0.294624,-0.418504 0.67946,-0.705127 1.146484,-0.90625 0.285554,-0.08746 0.53354,-0.240848 0.783203,-0.398438 0.395295,-0.264805 0.806393,-0.500247 1.226563,-0.722656 0.372772,-0.201849 0.761595,-0.373487 1.132812,-0.578125 0.382124,-0.204289 0.752112,-0.431619 1.130859,-0.642578 0.412982,-0.2101 0.835193,-0.401073 1.261719,-0.582031 0.402204,-0.201397 0.833494,-0.335521 1.246094,-0.511719 0.480304,-0.178492 0.950927,-0.380151 1.419922,-0.585937 0.437256,-0.205257 0.87672,-0.40299 1.314453,-0.607422 0.517732,-0.23635 1.038963,-0.462585 1.572266,-0.66211 0.553812,-0.245616 1.124727,-0.440746 1.697265,-0.636718 0.453619,-0.160479 0.897264,-0.341266 1.363281,-0.464844 0.487266,-0.08639 0.97544,-0.163531 1.464844,-0.238281 0.654026,-0.08607 1.313958,-0.119362 1.972656,-0.144532 0.593242,-0.02031 1.185793,-0.0279 1.779297,-0.0332 0.541492,-0.0042 1.08352,-0.0051 1.625,-0.0059 z m -22.082031,7.123047 c 0.158095,0.0055 0.212698,0.197907 0.0059,0.332031 -0.658277,0.426433 -1.304717,0.870295 -1.955079,1.308594 -0.400106,0.271771 -0.803916,0.536483 -1.208984,0.800781 -0.271238,0.176973 -0.450923,-0.09647 -0.179687,-0.273438 0.403705,-0.263395 0.808265,-0.52796 1.207031,-0.798828 0.651375,-0.438975 1.297732,-0.883451 1.957031,-1.310546 0.05097,-0.03302 0.0985,-0.05162 0.140625,-0.05664 0.01141,-0.0014 0.02266,-0.0023 0.0332,-0.002 z" sodipodi:nodetypes="ccccssssccsccssscssscssscsscssscsssssscssscscccscssssscscssccccssccccccccccccccccccccccccccccccscccccccccccccccccccccccccccccccccccsccccccsccccccccccccccccccccccccccccccsscccccccscccccccccccccssccccccccccscccccccccccccccccsccsccccccccccccccccccccccsscsccc" inkscape:label="bodyoutline" /></svg>